<?xml version="1.0" encoding="utf-8" ?><svg xmlns="http://www.w3.org/2000/svg" xmlns:xlink="http://www.w3.org/1999/xlink" width="1536" height="1024" viewBox="0 0 1536 1024"><path fill="#55CAB0" d="M458.287 438.95L491.248 438.884C491.985 470.217 491.347 504.078 491.394 535.658C506.069 535.934 521.192 535.709 535.904 535.654C535.999 539.98 536.851 560.714 535.226 563.011L458.238 562.924C457.826 522.244 457.836 479.622 458.287 438.95Z"/><path fill="#55CAB0" d="M705.808 438.941C716.154 438.643 727.967 438.895 738.421 438.888C727.058 478.839 712.901 523.057 703.064 562.846L670.553 562.957L693.365 480.746C695.207 474.025 703.044 443.698 705.808 438.941Z"/><path fill="#55CAB0" d="M349.41 439C359.424 438.613 371.592 438.887 381.774 438.877C380.417 444.263 378.74 450.113 377.081 455.409C366 490.798 357.07 527.481 346.156 562.853L314.619 562.973C324.685 528.133 333.794 492.908 343.759 458.03C345.578 451.665 347.127 445.219 349.41 439Z"/><path fill="#55CAB0" d="M567.939 474.174L600.778 474.142L600.852 492.137L639.683 492.171C639.886 500.746 639.796 509.709 639.84 518.317C632.817 518.568 604.963 517.244 601.144 519.999L600.79 522.69L600.779 562.962L567.948 562.983C567.113 535.736 567.553 501.489 567.939 474.174Z"/><path fill="#55CAB0" d="M744.183 446.077C747.349 449.591 778.895 549.785 782.995 562.857C776.574 562.902 758.418 563.521 752.774 562.623C750.854 560.939 750.829 559.505 749.85 556.821L746.292 544.814L714.286 544.819C716.811 537.517 718.998 528.93 721.089 521.399L739.392 521.321C736.464 511.621 733.351 501.978 730.052 492.398C734.937 477.043 738.125 460.956 744.183 446.077Z"/><path fill="#55CAB0" d="M386.57 446.032C389.245 447.953 421.655 550.61 425.525 562.919C416.981 562.783 404.003 563.97 395.611 562.325C394.072 562.023 393.624 560.119 392.924 558.58L388.654 544.852L357.678 544.834L363.948 521.548C369.763 521.336 376.265 521.424 382.138 521.383C379.254 511.99 376.246 502.636 373.116 493.323C377.23 477.711 382.173 461.669 386.57 446.032Z"/><path fill="#55CAB0" d="M565.51 439.076C589.617 437.95 621.678 438.915 646.395 438.926C646.528 446.359 646.96 458.811 646.22 465.839L564.958 465.848C564.843 459.773 564.285 444.56 565.51 439.076Z"/><path d="M974.164 605.51C977.823 605.242 981.262 605.836 984.503 607.572C988.371 609.604 991.197 613.18 992.281 617.413C993.313 621.491 992.694 625.811 990.559 629.436C987.415 634.808 983.625 636.202 978.059 637.623C974.036 637.566 970.474 637.057 966.985 634.974C963.169 632.748 960.444 629.043 959.456 624.737C958.487 620.563 959.294 616.173 961.686 612.618C965.045 607.587 968.713 606.661 974.164 605.51ZM975.629 631.873C989.055 629.73 989.709 615.063 977.349 610.333C961.705 613.466 961.389 628.424 975.629 631.873Z"/><path d="M593.207 605.233C599.044 603.925 605.132 605.88 609.117 610.343C613.101 614.806 614.357 621.077 612.399 626.731C610.441 632.385 605.576 636.535 599.685 637.576C594.853 638.431 589.892 637.089 586.149 633.914C582.406 630.74 580.27 626.064 580.322 621.156C580.404 613.501 585.739 606.908 593.207 605.233ZM598.152 632.104C612.439 624.555 608.629 609.844 593.577 610.938C579.869 619.613 589.739 633.309 598.152 632.104Z"/><path d="M382.767 605.404C391.663 603.699 400.257 609.528 401.965 618.426C403.673 627.324 397.848 635.922 388.953 637.633C380.053 639.346 371.452 633.516 369.743 624.613C368.035 615.711 373.866 607.109 382.767 605.404ZM388.113 631.196C392.489 630.166 395.677 626.394 395.963 621.907C396.166 618.721 394.868 615.624 392.455 613.535C390.042 611.446 386.791 610.607 383.668 611.266C380.072 612.024 377.161 614.658 376.047 618.161C374.933 621.664 375.788 625.496 378.285 628.194C380.781 630.891 384.535 632.038 388.113 631.196Z"/><path d="M756.768 606.119C765.566 605.92 783.469 603.503 780.688 617.772C779.93 621.661 777.829 622.634 774.758 624.638C776.827 627.748 782.802 633.9 780.58 636.886L776.243 637.043C773.097 633.187 769.594 623.182 763.788 624.08C761.204 626.302 763.053 632.123 762.247 636.56C760.719 637.304 759.677 636.859 757.972 636.516C757.622 636.061 757.272 635.607 756.922 635.153C757.116 628.435 756.828 611.639 756.768 606.119ZM772.536 618.941C774.106 615.51 774.232 616.483 773.82 613.106C771.072 609.369 766.354 610.057 762.134 610.032C761.837 614.818 760.64 620.5 766.587 621.787C769.208 621.1 770.521 620.837 772.536 618.941Z"/><path d="M1009.26 606.146C1023.43 605.799 1042.61 606.035 1027.34 624.756C1027.93 629.74 1033.04 631.574 1033.72 636.015C1031.84 637.423 1031.19 636.976 1028.49 637.065C1026.11 633.418 1021.4 624.782 1016.85 624.419C1014.16 628.24 1017.04 635.894 1011.93 637.825L1012.92 637.796L1011.19 637.365C1010.37 636.466 1009.25 634.49 1009.28 633.458C1009.54 624.444 1009.45 615.092 1009.26 606.146ZM1023.16 620.136C1027.85 613.678 1024.58 609.703 1017.17 610.009C1013.73 613.467 1012.91 616.264 1016.38 619.99C1019.1 621.066 1020.26 620.601 1023.16 620.136Z"/><path d="M837.963 606.09C838.807 606.051 839.806 606.082 840.619 606.028C847.515 605.567 853.693 622.133 859.408 621.895C861.4 617.687 858.724 610.089 861.662 605.416L863.398 605.204C864.947 606.572 865.546 606.513 865.521 609.401C865.443 618.189 865.692 627.552 864.872 636.296C864.244 636.995 863.726 637.571 863.319 638.023C856.536 635.02 851.028 619.934 844.877 618.542C840.414 621.746 844.996 631.933 841.709 636.833C839.61 637.477 840.675 637.453 838.416 636.63C837.634 628.087 837.987 614.972 837.963 606.09Z"/><path d="M921.874 606.115C929.708 605.947 941.324 604.91 944.947 613.72C947.663 620.323 939.664 624.992 934.476 626.462C931.982 626.429 930.242 626.279 927.788 626.834C926.667 628.901 927.416 633.152 927.406 636.04L926.295 636.901C923.487 636.983 924.27 637.335 922.058 636.127C921.709 626.418 921.89 615.885 921.874 606.115ZM936.183 619.917C937.307 617.177 937.603 616.694 937.126 613.81C934.302 609.609 932.03 609.968 927.234 610.011C927.06 613.226 926.462 617.883 927.758 620.657C930.722 622.934 933.057 621.261 936.183 619.917Z"/><path d="M511.489 605.613C516.821 605.323 525.813 606.031 527.463 612.429C526.169 614.008 527.007 613.42 524.61 613.814C521.577 611.61 520.746 610.987 517.21 609.71L516.44 609.437C508.003 612.541 506.967 612.573 503.872 621.133L504.637 623.445C508.269 634.542 516.702 631.56 525.108 629.479C526.506 629.133 527.842 630.914 528.875 631.858C524.178 636.314 517.949 637.134 516.965 639.543C518.117 641.458 519.034 642.47 518.899 644.61C517.231 646.032 516.796 645.881 514.473 646.053C513.845 645.286 513.415 644.453 512.971 643.57L509.804 642.54C511.383 641.825 512.521 641.242 514.04 640.409L514.061 639.076C511.502 636.136 507.657 636.395 504.947 634.429C491.469 624.65 497.326 609.443 511.489 605.613Z"/><path d="M550.516 606.181C553.183 605.92 553.98 605.678 556.548 606.44C558.613 609.539 568.207 633.22 568.5 636.342C566.27 637.242 567.166 637.041 564.683 636.756C560.607 633.682 563.076 628.258 557.065 627.361C553.331 627.777 551.678 627.686 547.912 627.49C545.444 633.261 545.811 636.961 539.323 636.571C538.574 633.649 548.712 611.563 550.516 606.181Z"/><path fill="#F1F0F1" d="M553.316 610.532C554.955 612.379 557.812 620.883 557.494 623.566L555.924 624.045C554.1 624.065 552.486 624.022 550.663 623.951L549.514 622.698C549.255 619.894 552.133 613.879 553.316 610.532Z"/><path d="M469.328 606.066C471.786 605.986 472.367 606.019 474.777 606.493C476.525 608.727 485.643 632.101 486.804 635.913C485.809 637.632 486.489 636.936 484.518 637.871C480.415 636.309 479.815 631.624 477.197 627.939L475.679 627.849C472.707 627.933 468.939 627.541 465.908 627.308C464.949 630.483 464.188 634.748 461.924 636.759C460.14 636.976 459.426 637.256 457.856 636.399C458.512 631.718 467.098 611.543 469.328 606.066Z"/><path fill="#F1F0F1" d="M471.898 611.159C473.32 614.222 476.908 620.613 475.643 623.649L472.825 624.355C470.245 624.15 469.445 624.584 468.007 623.074C467.655 620.109 470.604 614.545 471.898 611.159Z"/><path d="M804.924 606.054C807.589 605.948 808.155 605.901 810.725 606.543C813.485 611.536 820.319 630.007 822.514 636.038C821.414 637.768 822.14 637.029 819.975 637.987C815.573 636.251 816.078 631.887 813.202 627.877L811.664 627.92L802.218 627.097C801.082 630.412 800.085 633.893 798.24 636.848C795.812 637.137 795.417 637.057 793.012 636.566C798.018 624.984 800.641 618.113 804.924 606.054Z"/><path fill="#F1F0F1" d="M807.644 612.772C809.395 614.661 812.078 620.96 811.789 623.593L810.18 624.206C807.532 624.243 805.704 624.748 803.872 622.823C803.567 619.995 806.248 615.582 807.644 612.772Z"/><path d="M429.762 605.533C434.512 605.228 442.999 605.486 445.909 609.92C445.859 612.459 446.103 611.484 444.477 613.725C439.612 615.43 439.127 606.471 430.973 610.268C427.997 611.635 425.711 614.164 424.652 617.264C420.827 628.269 432.554 635.409 438.57 631.516C442.046 630.527 443.669 628.436 446.825 630.945L446.484 632.509C441.946 637.799 434.007 638.941 427.709 636.449C423.406 634.768 419.988 631.385 418.26 627.1C416.579 623.031 416.687 618.444 418.556 614.458C420.982 609.371 424.808 607.324 429.762 605.533Z"/><path d="M1126.54 620.913C1115.12 607.033 1140.8 601.238 1145.14 609.194C1144.76 611.796 1145.25 611.376 1143.71 612.627C1138.32 611.626 1137.59 607.177 1132.14 610.619C1130.52 611.638 1129.66 612.738 1129.27 614.53C1133.33 620.656 1147.74 619.542 1146.34 629.302C1144.99 638.731 1128.17 640.096 1123.96 632.874C1124.11 630.397 1123.71 631.348 1125.69 629.425C1129.35 631.889 1138.04 635.707 1139.33 629.121C1136.78 623.433 1132.56 624.09 1127.19 621.257L1126.54 620.913Z"/><path d="M1086.26 606.131C1091.38 606.09 1103.53 605.238 1107.82 606.795L1108.28 608.149C1107.64 609.448 1107.64 609.254 1106.64 610.365L1104.13 610.213C1099.66 610.022 1096.05 609.907 1091.59 610.07C1091.46 612.366 1090.89 617.532 1091.93 619.39C1095.81 619.616 1101.96 619.036 1104.73 620.244C1105.87 622.257 1105.69 621.313 1105.17 623.79C1104.36 623.942 1103.23 624.199 1102.45 624.277C1099.41 623.957 1095.08 623.113 1092.51 624.272C1090.81 626.414 1091.18 628.787 1091.12 631.681C1094.51 633.288 1101.98 631.178 1107.08 632.404C1108.48 634.238 1108.22 633.252 1108.07 635.403C1105.5 637.614 1090.5 636.886 1086.13 636.87C1086.92 627.524 1086.44 615.671 1086.26 606.131Z"/><path d="M657.808 606.092C665.057 605.937 672.397 605.261 679.187 607.915L679.073 609.053C673.57 610.638 668.649 610.107 662.966 609.921L663.047 619.728C664.459 619.656 665.872 619.602 667.285 619.564C671.119 619.466 674.152 619.345 677.138 622.192C674.63 624.268 672.7 623.704 669.303 623.644L668.248 623.612L664.018 623.623C662.486 625.327 662.991 625.98 662.923 628.777C663.061 630.158 662.962 631.231 663.636 632.295C667.791 632.149 674.741 631.394 678.13 633.059C679.206 635.063 679.001 633.989 678.486 636.426C674.595 637.386 662.353 636.983 657.653 636.968C657.973 626.906 657.801 616.203 657.808 606.092Z"/><path d="M886.468 620.76C876.918 607.553 901.159 599.309 904.664 610.422C900.38 612.627 890.56 605.847 889.144 615.128L890.68 616.581C893.218 617.864 894.77 618.87 897.598 619.277C924.577 632.482 881.464 647.759 884.917 628.567C888.953 632.013 899.223 635.839 899.432 628.603C896.462 623.226 891.585 623.996 886.468 620.76Z"/><path d="M715.832 606.102C721.433 606.167 737.694 605.334 742.055 606.635C742.288 608.454 742.423 608.733 741.706 610.472C739.474 611.266 735.172 610.561 732.571 610.316C732.062 614.565 732.379 622.794 732.422 627.341C732.545 630.237 733.198 634.872 731.664 636.874L727.242 636.598C726.395 634.149 726.558 614.49 726.497 610.427C722.742 610.573 719.279 612.261 716.3 609.982L715.832 606.102Z"/><path d="M1044.7 606.122C1049.35 606.051 1069.06 605.201 1071.65 607.05L1071.67 609.865C1069.43 610.712 1063.96 610.222 1061.26 610.119C1060.96 614.909 1061.17 621.128 1061.19 626.028C1061.29 629.013 1061.93 634.53 1060.34 636.687C1058.08 637.02 1057.99 637.039 1055.75 636.507C1054.69 632.082 1055.4 615.982 1055.5 610.787C1051.09 610.398 1048.53 611.853 1045.43 609.937L1044.7 606.122Z"/><path d="M337.408 606.057C339.594 606.023 340.7 605.795 342.622 606.689C343.21 613.672 342.769 624.983 342.689 632.302C346.847 632.313 353.541 631.083 357.069 633.035C358.172 633.645 358.213 635.187 358.647 636.773L337.17 636.849C337.741 627.82 337.391 615.339 337.408 606.057Z"/><path d="M547.224 596.414C551.297 596.514 555.922 595.985 559.562 597.025L558.873 599.921C554.986 599.455 549.7 600.616 547.541 599.022L547.224 596.414Z"/><defs><linearGradient id="gradient_0" gradientUnits="userSpaceOnUse" x1="979.75208" y1="355.15213" x2="988.24792" y2="323.76361"><stop offset="0" stop-color="#55C3AD" stop-opacity="0.93333334"/><stop offset="1" stop-color="#57CEB2"/></linearGradient></defs><path fill="url(#gradient_0)" d="M1149.45 374.408C1140.59 374.769 1118.15 371.961 1108.49 370.638C1083.5 367.131 1058.72 362.298 1034.24 356.158C985.844 343.615 944.201 328.321 894.025 317.565C873.031 312.902 851.763 309.572 830.349 307.593C822.653 306.912 800.895 306.364 795.634 305.297C806.511 303.863 818.997 304.855 830.019 305.166C900.973 307.169 966.813 330.821 1034.82 348.109C1067.65 356.423 1100.89 362.978 1134.42 367.746C1138.89 371.289 1164.99 373.283 1172 373.639L1171.85 374.133C1166.2 375.039 1158.22 373.161 1149.45 374.408Z"/><path fill="#55CAB0" fill-opacity="0.97647059" d="M1134.42 367.746C1149.09 369.779 1163.81 371.446 1178.57 372.747C1187.27 373.517 1201.18 374.072 1209.23 375.832C1197.33 375.879 1158.63 376.453 1149.45 374.408C1158.22 373.161 1166.2 375.039 1171.85 374.133L1172 373.639C1164.99 373.283 1138.89 371.289 1134.42 367.746Z"/><path fill="#005B49" d="M969.458 352.237C971.145 351.494 972.674 350.552 974.424 350.881C972.377 353.888 968.442 356.825 967.387 358.545C927.348 391.975 856.961 396.942 806.602 398.385C672.78 402.22 538.139 383.193 404.409 394.404C358.567 398.247 294.611 412.874 257.751 441.16C252.949 453.162 247.954 468.774 243.138 481.477C242.952 461.133 242.934 440.788 243.084 420.444C314.933 366.417 410.033 363.558 496.037 362.966C564.47 362.495 630.061 367.353 697.983 372.072C778.555 377.669 895.572 389.598 969.458 352.237Z"/><path fill="#55CAB0" d="M589.305 338.711C660.002 288.106 725.714 267.324 812.407 268.413C836.572 268.573 860.693 270.519 884.572 274.235C942.321 283.81 997.972 303.79 1054.19 319.4C1126.37 339.641 1200.69 351.34 1275.6 354.259C1276.18 376.835 1275.65 388.355 1270.34 410.519C1268.72 415.596 1267.14 420.664 1265.32 425.675L1266.03 414.276C1266.38 397.509 1264.46 384.343 1261.88 367.893C1193.93 368.166 1131.75 360.504 1065.54 345.189C1023.26 335.408 981.346 322.661 939.049 313.117C808.318 283.619 712.829 289.41 590.589 344.593C589.659 344.662 574.921 351.238 572.476 352.203C578.121 347.75 583.731 343.252 589.305 338.711Z"/><path fill="#005B49" d="M1101.1 438.918C1112.87 438.573 1125.28 438.695 1137.07 438.738C1154.44 438.802 1181.76 436.094 1192.9 452.353C1193.66 453.557 1194.98 455.399 1195.28 456.685C1200.27 467.267 1200.92 487.078 1197.12 497.98C1196.64 499.344 1196.1 500.684 1195.49 501.995C1192.3 510.265 1185.29 514.926 1177.86 518.772C1185.35 531.715 1195.91 550.505 1204.09 562.669C1192.99 563.132 1179.54 562.843 1168.26 562.884C1160.7 549.484 1153.82 535.921 1146.12 522.488L1136.7 522.887L1136.76 562.848L1105.07 562.953C1105.55 553.284 1105.18 540.118 1105.19 530.184L1105.12 471.975L1136.84 471.984L1136.93 497.592C1143.6 497.579 1158.27 498.93 1162.95 494.355C1170.34 487.826 1168.29 466.691 1156.99 465.704C1139.29 464.156 1119.43 464.955 1101.58 465.063C1100.61 462.37 1101.06 443.148 1101.1 438.918Z"/><path fill="#014035" d="M1101.1 438.918C1112.87 438.573 1125.28 438.695 1137.07 438.738C1154.44 438.802 1181.76 436.094 1192.9 452.353C1187.98 449.172 1183.65 445.109 1178.08 443.072C1163.96 437.912 1120.55 440.381 1102.63 440.455C1102.45 444.696 1102.22 462.504 1101.58 465.063C1100.61 462.37 1101.06 443.148 1101.1 438.918Z"/><path fill="#014035" d="M1195.28 456.685C1200.27 467.267 1200.92 487.078 1197.12 497.98C1196.64 499.344 1196.1 500.684 1195.49 501.995C1194.63 499.126 1199.9 480.097 1197.79 473.876C1197.44 472.834 1195.27 457.259 1195.28 456.685Z"/><path fill="#005B49" d="M826.18 460.578C837.097 433.022 880.413 432.943 904.252 441.263C923.446 447.962 924.513 465.344 925.345 482.845L892.522 482.965C892.274 475.508 892.288 471.08 886.866 465.375C880.611 458.795 867.049 461.086 861.261 466.991C855.107 473.27 856.717 488.762 856.798 497.141C856.884 506.06 856.685 514.628 856.879 523.512C857.532 535.757 863.939 543.864 877.106 541.828C891.149 539.657 892.168 530.861 893.091 519.147C904.001 519.146 915.189 519.016 926.075 519.154C925.505 556.415 908.497 566.089 872.553 565.78C857.412 565.65 831.888 560.097 826.995 543.329C820.166 531.838 819.689 472.923 826.18 460.578Z"/><path fill="#014035" d="M826.18 460.578C825.684 459.218 821.082 519.553 824.35 524.943C823.84 524.101 826.978 544.309 826.995 543.329C820.166 531.838 819.689 472.923 826.18 460.578Z"/><path fill="#005B49" d="M994.114 438.844C1005.02 438.65 1016.28 438.797 1027.21 438.807C1026 442.674 1024.99 446.117 1023.32 449.84C1014.92 485.583 999.683 526.399 990.31 562.822L956.467 562.917C966.996 531.169 975.727 497.822 985.918 465.832C987.398 458.582 991.714 446.213 994.114 438.844Z"/><path fill="#014035" d="M994.114 438.844C1005.02 438.65 1016.28 438.797 1027.21 438.807C1026 442.674 1024.99 446.117 1023.32 449.84C1022.8 447.013 1024.24 443.138 1025.24 440.338L995.213 440.427C992.617 447.286 989.463 460.055 986.95 465.455L985.918 465.832C987.398 458.582 991.714 446.213 994.114 438.844Z"/><path fill="#005B49" d="M1032.22 443.854C1035.62 447.738 1065.22 548.335 1070.74 562.795L1039.93 562.854L1037.74 556.412L1034.43 544.819C1023.57 544.9 1012.71 544.909 1001.85 544.846C1004.63 536.368 1007.19 527.819 1009.54 519.209L1026.87 519.147L1017.94 492.692C1020.02 482.194 1028.69 454.203 1032.22 443.854Z"/></svg>